<?xml version="1.0" encoding="UTF-8"?><!DOCTYPE svg PUBLIC "-//W3C//DTD SVG 1.1//EN" "http://www.w3.org/Graphics/SVG/1.1/DTD/svg11.dtd"><svg xmlns="http://www.w3.org/2000/svg" xmlns:xlink="http://www.w3.org/1999/xlink" version="1.1" x="0px" y="0px" width="24px" height="24.001px" viewBox="0 0 24 24.001" xml:space="preserve"><path fill="none" d="M0 0h24v24.001H0z" id="Frames-24px"/><g fill="#757575" id="Outline"><path d="M20.706 2.292a1 1 0 0 0-1.707.707v19h2v-6h2a1 1 0 0 0 1-1c0-9.307-3.158-12.572-3.293-12.707zm.293 11.707V7.242c.487 1.6.908 3.808.987 6.757h-.987z"/><path d="M7.999 5.999v-4h-2v4c0 .737-.405 1.375-1 1.723V1.999h-2v5.723c-.595-.348-1-.985-1-1.723v-4h-2v4c0 1.858 1.28 3.41 3 3.858v12.142h2V9.857c1.72-.448 3-2 3-3.858z"/><path d="M11.999 8.999c-3.309 0-6 2.691-6 6s2.691 6 6 6 6-2.691 6-6-2.691-6-6-6zm0 10c-2.206 0-4-1.794-4-4 0-2.205 1.794-4 4-4s4 1.795 4 4c0 2.206-1.794 4-4 4z"/><path d="M13.499 12.999a1.5 1.5 0 0 0-1.5 1.5 1.5 1.5 0 0 0-3 0c0 1.5 3 3.5 3 3.5s3-2 3-3.5a1.5 1.5 0 0 0-1.5-1.5z"/></g><metadata><rdf:RDF xmlns:rdf="http://www.w3.org/1999/02/22-rdf-syntax-ns#" xmlns:rdfs="http://www.w3.org/2000/01/rdf-schema#" xmlns:dc="http://purl.org/dc/elements/1.1/"><rdf:Description about="https://iconscout.com/legal#licenses" dc:title="food,plate,knife,fork" dc:description="food,plate,knife,fork" dc:publisher="Iconscout" dc:date="2017-09-21" dc:format="image/svg+xml" dc:language="en"><dc:creator><rdf:Bag><rdf:li>Vincent Le Moign</rdf:li></rdf:Bag></dc:creator></rdf:Description></rdf:RDF></metadata></svg>