<?xml version="1.0" encoding="UTF-8"?><!DOCTYPE svg PUBLIC "-//W3C//DTD SVG 1.1//EN" "http://www.w3.org/Graphics/SVG/1.1/DTD/svg11.dtd"><svg xmlns="http://www.w3.org/2000/svg" xmlns:xlink="http://www.w3.org/1999/xlink" version="1.1" x="0px" y="0px" width="24px" height="24.001px" viewBox="0 0 24 24.001" xml:space="preserve"><path fill="none" d="M0 0h24v24.001H0z" id="Frames-24px"/><path fill="#757575" d="M21.853 20.479L13.671 7.091l2.182-3.569-1.707-1.043L12.5 5.173l-1.646-2.695-1.708 1.044 2.182 3.569-8.182 13.388A1.001 1.001 0 0 0 4 22h17a.999.999 0 0 0 .853-1.521zM11 20v-1.5c0-.827.673-1.5 1.5-1.5s1.5.673 1.5 1.5V20h-3zm5 0v-1.5c0-1.931-1.57-3.5-3.5-3.5S9 16.569 9 18.5V20H5.783L12.5 9.009 19.216 20H16z" id="Outline"/><metadata><rdf:RDF xmlns:rdf="http://www.w3.org/1999/02/22-rdf-syntax-ns#" xmlns:rdfs="http://www.w3.org/2000/01/rdf-schema#" xmlns:dc="http://purl.org/dc/elements/1.1/"><rdf:Description about="https://iconscout.com/legal#licenses" dc:title="travel,camping" dc:description="travel,camping" dc:publisher="Iconscout" dc:date="2017-09-21" dc:format="image/svg+xml" dc:language="en"><dc:creator><rdf:Bag><rdf:li>Vincent Le Moign</rdf:li></rdf:Bag></dc:creator></rdf:Description></rdf:RDF></metadata></svg>